<!DOCTYPE svg PUBLIC "-//W3C//DTD SVG 1.1//EN" "http://www.w3.org/Graphics/SVG/1.1/DTD/svg11.dtd">
<!-- Uploaded to: SVG Repo, www.svgrepo.com, Transformed by: SVG Repo Mixer Tools -->
<svg width="256px" height="256px" viewBox="-3.2 -3.2 38.40 38.40" xmlns="http://www.w3.org/2000/svg" xmlns:xlink="http://www.w3.org/1999/xlink" fill="#ffffff" stroke="#ffffff" stroke-width="0.00032" transform="rotate(90)">
<g id="SVGRepo_bgCarrier" stroke-width="0" transform="translate(9.76,9.76), scale(0.39)">
<path transform="translate(-3.2, -3.2), scale(1.2)" d="M16,30.554225641302764C19.11534100956744,31.176400601055676,22.41424588528175,30.22841391518192,25.0610744555848,28.4714990607101C27.7789369764633,26.667433210386847,29.808950531028483,23.915155300641285,30.72055578599626,20.782998514365456C31.614670890957225,17.71093560286524,31.085972486593946,14.461258792831268,30.01635212897243,11.44581112396083C28.970437692161486,8.497194609842934,27.41299466669119,5.599163739668542,24.751359814750643,3.9547865714392607C22.184830466909805,2.3691662681497645,18.91839059155353,2.0220382267096118,16,2.7864078981801867C13.426024770751441,3.4605700908792754,12.316411624439338,6.417343657593062,10.04680316153016,7.80612750252396C7.448304956324993,9.396160491670107,3.3791165822777876,8.756516800017563,1.895335720656643,11.417116766888629C0.4228184698211699,14.057519706517773,1.7362494865341425,17.502572095317046,3.14844587970307,20.17572306088763C4.419516808684145,22.581737194297208,7.118250436170712,23.60124791202001,9.235254941115398,25.310872795645466C11.51050581484769,27.14829236709079,13.132104120789625,29.981468759233213,16,30.554225641302764" fill="#FBC7D4" strokewidth="0"/>
</g>
<g id="SVGRepo_tracerCarrier" stroke-linecap="round" stroke-linejoin="round" stroke="#CCCCCC" stroke-width="0.064"/>
<g id="SVGRepo_iconCarrier">
<defs>
<linearGradient id="a" x1="28.607" y1="-60.825" x2="11.085" y2="-50.756" gradientTransform="matrix(1, 0, 0, -1, 0, -29.66)" gradientUnits="userSpaceOnUse">
<stop offset="0.18" stop-color="#4136c3"/>
<stop offset="1" stop-color="#9796F0"/>
</linearGradient>
<linearGradient id="b" x1="621.442" y1="1817.567" x2="603.915" y2="1827.64" gradientTransform="matrix(-1, 0, 0, 1, 624.83, -1816.71)" xlink:href="#a"/>
</defs>
<title>file_type_confluence</title>
<path d="M3.015,23.087c-.289.472-.614,1.02-.891,1.456a.892.892,0,0,0,.3,1.212l5.792,3.564a.89.89,0,0,0,1.226-.29l.008-.013c.231-.387.53-.891.855-1.43,2.294-3.787,4.6-3.323,8.763-1.336l5.743,2.731A.892.892,0,0,0,26,28.559l.011-.024L28.766,22.3a.891.891,0,0,0-.445-1.167c-1.212-.57-3.622-1.707-5.792-2.754C14.724,14.586,8.09,14.831,3.015,23.087Z" style="fill:url(#a)"/>
<path d="M28.985,8.932c.289-.472.614-1.02.891-1.456a.892.892,0,0,0-.3-1.212L23.785,2.7a.89.89,0,0,0-1.236.241.584.584,0,0,0-.033.053c-.232.387-.53.891-.856,1.43-2.294,3.787-4.6,3.323-8.763,1.336L7.172,3.043a.89.89,0,0,0-1.187.421l-.011.024L3.216,9.726a.891.891,0,0,0,.445,1.167c1.212.57,3.622,1.706,5.792,2.753C17.276,17.433,23.91,17.179,28.985,8.932Z" style="fill:url(#b)"/>
</g>
</svg>